<svg xmlns="http://www.w3.org/2000/svg" width="21.875" height="25" viewBox="0 0 21.875 25">
  <path id="Icon_awesome-user-md" data-name="Icon awesome-user-md" d="M10.938,12.5a6.25,6.25,0,1,0-6.25-6.25A6.25,6.25,0,0,0,10.938,12.5ZM5.078,20.7A1.172,1.172,0,1,0,6.25,19.531,1.169,1.169,0,0,0,5.078,20.7Zm10.547-6.611v2.393a3.912,3.912,0,0,1,3.125,3.828v2.036a.784.784,0,0,1-.63.767l-1.572.313a.389.389,0,0,1-.459-.308l-.151-.767a.386.386,0,0,1,.308-.459l.942-.19V20.313a2.344,2.344,0,1,0-4.687.093v1.3l.942.19a.4.4,0,0,1,.308.459l-.151.767a.4.4,0,0,1-.459.308l-1.523-.205a.78.78,0,0,1-.674-.776V20.313a3.916,3.916,0,0,1,3.125-3.828V14.277c-.107.034-.215.054-.322.093a8.447,8.447,0,0,1-5.605,0,5.4,5.4,0,0,0-1.1-.254V18.1a2.734,2.734,0,1,1-1.562,0V14.175A6.546,6.546,0,0,0,0,20.625v2.188A2.19,2.19,0,0,0,2.188,25h17.5a2.19,2.19,0,0,0,2.188-2.187V20.625A6.553,6.553,0,0,0,15.625,14.092Z" fill="#223142"/>
</svg>
