<svg xmlns="http://www.w3.org/2000/svg" xmlns:xlink="http://www.w3.org/1999/xlink" width="36.241" height="30" viewBox="0 0 36.241 30">
  <defs>
    <clipPath id="clip-path">
      <rect id="Rectangle_12" data-name="Rectangle 12" width="36" height="30" fill="none"/>
    </clipPath>
  </defs>
  <g id="Group_22" data-name="Group 22" transform="translate(-704 -331)">
    <path id="Path_2" data-name="Path 2" d="M740.737,450.612l-2.658-5.848a2.155,2.155,0,0,0-1.962-1.263H713.655a2.155,2.155,0,0,0-2.155,2.155v13.038a2.155,2.155,0,0,0,2.155,2.155h31.392a2.155,2.155,0,0,0,2.155-2.155V454.32a2.155,2.155,0,0,0-1.474-2.044Zm0,0" transform="translate(-6.961 -104.419)" fill="#fbfbfb"/>
    <path id="Path_3" data-name="Path 3" d="M1035.951,452.276l-4.992-1.664-2.658-5.848a2.155,2.155,0,0,0-1.962-1.263h-2.155a2.155,2.155,0,0,1,1.962,1.263l2.659,5.848,4.992,1.664a2.155,2.155,0,0,1,1.473,2.044v4.373a2.155,2.155,0,0,1-2.155,2.155h2.155a2.155,2.155,0,0,0,2.155-2.155V454.32a2.155,2.155,0,0,0-1.474-2.044Zm0,0" transform="translate(-297.183 -104.419)" fill="#f2f2f2"/>
    <path id="Path_4" data-name="Path 4" d="M968.458,478.457h-8.17a.287.287,0,0,1-.287-.287v-4.382a.287.287,0,0,1,.287-.287h6.138a.286.286,0,0,1,.26.167l2.032,4.382a.287.287,0,0,1-.26.408Zm0,0" transform="translate(-237.61 -132.263)" fill="#b3e0ff"/>
    <path id="Path_5" data-name="Path 5" d="M711.5,445.655v9.051h11.6V443.5h-9.446a2.155,2.155,0,0,0-2.155,2.155Zm0,0" transform="translate(-6.961 -104.419)" fill="#eee"/>
    <path id="Path_6" data-name="Path 6" d="M747.2,482.551v3.987a2.155,2.155,0,0,1-2.155,2.155H713.655a2.155,2.155,0,0,1-2.155-2.155v-3.987Zm-26.974-6.681h-1.652v-1.652a.718.718,0,0,0-.718-.718h-.718a.718.718,0,0,0-.718.718v1.652h-1.652a.718.718,0,0,0-.718.718v.718a.718.718,0,0,0,.718.718h1.652v1.652a.718.718,0,0,0,.718.718h.718a.718.718,0,0,0,.718-.718v-1.652h1.652a.718.718,0,0,0,.718-.718v-.718a.718.718,0,0,0-.718-.718Zm0,0" transform="translate(-6.961 -132.263)" fill="#f66"/>
    <path id="Path_7" data-name="Path 7" d="M782.474,633.487H774.5a3.987,3.987,0,1,1,7.974,0Zm0,0" transform="translate(-65.436 -277.057)" fill="#ff4e4e"/>
    <path id="Path_8" data-name="Path 8" d="M767.474,633.487a3.987,3.987,0,1,1-3.987-3.987,3.987,3.987,0,0,1,3.987,3.987Zm0,0" transform="translate(-51.513 -277.057)" fill="#4a4f60"/>
    <path id="Path_9" data-name="Path 9" d="M808.039,629.5a3.957,3.957,0,0,0-.539.037,3.986,3.986,0,0,1,0,7.9,3.987,3.987,0,1,0,.539-7.936Zm0,0" transform="translate(-96.065 -277.057)" fill="#3b3f4d"/>
    <path id="Path_10" data-name="Path 10" d="M1022.474,633.487H1014.5a3.987,3.987,0,1,1,7.974,0Zm0,0" transform="translate(-288.195 -277.057)" fill="#ff4e4e"/>
    <path id="Path_11" data-name="Path 11" d="M1007.474,633.487a3.987,3.987,0,1,1-3.987-3.987,3.987,3.987,0,0,1,3.987,3.987Zm0,0" transform="translate(-274.273 -277.057)" fill="#4a4f60"/>
    <path id="Path_12" data-name="Path 12" d="M1048.039,629.5a3.957,3.957,0,0,0-.539.037,3.986,3.986,0,0,1,0,7.9,3.987,3.987,0,1,0,.539-7.936Zm0,0" transform="translate(-318.825 -277.057)" fill="#3b3f4d"/>
    <path id="Path_13" data-name="Path 13" d="M995.368,396.5a1.868,1.868,0,0,1,1.868,1.868v1.509H993.5v-1.509a1.868,1.868,0,0,1,1.868-1.868Zm0,0" transform="translate(-268.704 -60.795)" fill="#f66"/>
    <path id="Path_14" data-name="Path 14" d="M1012.539,396.5a1.875,1.875,0,0,0-.539.079,1.869,1.869,0,0,1,1.329,1.789v1.509h1.078v-1.509a1.868,1.868,0,0,0-1.868-1.868Zm0,0" transform="translate(-285.875 -60.795)" fill="#ff4e4e"/>
    <path id="Path_15" data-name="Path 15" d="M1042.155,671.078a1.078,1.078,0,1,1-1.077-1.078,1.077,1.077,0,0,1,1.077,1.078Zm0,0" transform="translate(-311.863 -314.648)" fill="#676e87"/>
    <path id="Path_16" data-name="Path 16" d="M802.155,671.078A1.078,1.078,0,1,1,801.078,670a1.078,1.078,0,0,1,1.078,1.078Zm0,0" transform="translate(-89.104 -314.648)" fill="#676e87"/>
    <path id="Path_17" data-name="Path 17" d="M1150.655,603.487a2.155,2.155,0,0,1-2.155,2.155h2.155a2.155,2.155,0,0,0,2.155-2.155V599.5h-2.155Zm0,0" transform="translate(-412.569 -249.212)" fill="#ff4e4e"/>
    <path id="Path_18" data-name="Path 18" d="M987.59,478.457h-1.26l-3.568-4.957h1.26Zm0,0" transform="translate(-258.737 -132.263)" fill="#d9f0ff"/>
    <g id="Group_21" data-name="Group 21" transform="translate(704 331)">
      <g id="Group_20" data-name="Group 20" transform="translate(0)" clip-path="url(#clip-path)">
        <path id="Path_19" data-name="Path 19" d="M975.227,478.457h-.5L971.16,473.5h.5Zm0,0" transform="translate(-951.969 -463.263)" fill="#d9f0ff"/>
        <path id="Path_20" data-name="Path 20" d="M728.581,334.088a.538.538,0,0,0,.734-.2l.683-1.211a.539.539,0,1,0-.938-.529l-.683,1.211a.539.539,0,0,0,.2.734ZM710.07,335.7h7.994a.539.539,0,0,0,0-1.078H710.07a.539.539,0,0,0,0,1.078Zm-3.049,0h.881a.539.539,0,0,0,0-1.078h-.881a.539.539,0,0,0,0,1.078Zm6.1-2.027h5.962a.539.539,0,1,0,0-1.078h-5.962a.539.539,0,0,0,0,1.078Zm10.894.209a.539.539,0,0,0,.939-.529l-.683-1.211a.539.539,0,1,0-.938.529Zm2.651.274a.539.539,0,0,0,.539-.539v-1.58a.539.539,0,1,0-1.078,0v1.58a.539.539,0,0,0,.539.539Zm7.043,23.275h4.379a2.7,2.7,0,0,0,2.694-2.694v-4.373a2.69,2.69,0,0,0-1.842-2.555l-4.769-1.59-2.561-5.634a2.7,2.7,0,0,0-2.452-1.579h-.085v-.97a2.406,2.406,0,1,0-4.813,0v.97H706.694A2.7,2.7,0,0,0,704,341.7v13.038a2.7,2.7,0,0,0,2.694,2.694h.787a4.523,4.523,0,0,0,1.608,2.945h-4.55a.539.539,0,1,0,0,1.078h35.7a.539.539,0,0,0,0-1.078H732.1a4.522,4.522,0,0,0,1.608-2.945Zm-8.372-19.4a1.329,1.329,0,0,1,2.658,0v.97h-2.658Zm-8.656,2.047h12.477a1.62,1.62,0,0,1,1.471.947l2.658,5.849a.537.537,0,0,0,.32.288l4.991,1.664a1.614,1.614,0,0,1,1.1,1.381H716.679Zm-11.6,1.616a1.618,1.618,0,0,1,1.616-1.616H715.6v10.129H705.078Zm1.616,14.654a1.618,1.618,0,0,1-1.616-1.616v-3.448H739.7v3.448a1.618,1.618,0,0,1-1.616,1.616h-4.379a4.525,4.525,0,0,0-8.985,0h-8.255a4.525,4.525,0,0,0-8.985,0Zm5.28,3.987a3.448,3.448,0,1,1,3.448-3.448,3.448,3.448,0,0,1-3.448,3.448Zm2.885.036a4.522,4.522,0,0,0,1.608-2.945h8.255a4.522,4.522,0,0,0,1.608,2.945Zm14.356-.036a3.448,3.448,0,1,1,3.448-3.448,3.448,3.448,0,0,1-3.448,3.448Zm0-5.064a1.616,1.616,0,1,0,1.616,1.616,1.616,1.616,0,0,0-1.616-1.616Zm0,2.155a.539.539,0,1,1,.539-.539.539.539,0,0,1-.539.539Zm-15.947-13.9h-1.113v-1.113a1.259,1.259,0,0,0-1.257-1.257h-.718a1.259,1.259,0,0,0-1.257,1.257v1.113h-1.113a1.259,1.259,0,0,0-1.257,1.257v.718a1.259,1.259,0,0,0,1.257,1.257h1.113v1.113a1.259,1.259,0,0,0,1.257,1.257h.718a1.259,1.259,0,0,0,1.257-1.257v-1.113h1.113a1.259,1.259,0,0,0,1.257-1.257v-.718a1.259,1.259,0,0,0-1.257-1.257Zm.18,1.975a.18.18,0,0,1-.18.18h-1.652a.539.539,0,0,0-.539.539v1.652a.18.18,0,0,1-.18.18h-.718a.18.18,0,0,1-.18-.18v-1.652a.539.539,0,0,0-.539-.539h-1.652a.18.18,0,0,1-.18-.18v-.718a.18.18,0,0,1,.18-.18h1.652a.539.539,0,0,0,.539-.539v-1.652a.18.18,0,0,1,.18-.18h.718a.18.18,0,0,1,.18.18v1.652a.539.539,0,0,0,.539.539h1.652a.18.18,0,0,1,.18.18Zm16.041-4.034a.539.539,0,0,0-.489-.312H722.39a.539.539,0,0,0-.539.539v4.957a.539.539,0,0,0,.539.539H731.3a.539.539,0,0,0,.489-.765Zm-6.559,4.645v-3.879h5.726l1.8,3.879Zm-10.955,9.159a1.616,1.616,0,1,0,1.616,1.616,1.616,1.616,0,0,0-1.616-1.616Zm0,2.155a.539.539,0,1,1,.539-.539.539.539,0,0,1-.539.539Zm0,0" transform="translate(-704 -331.464)" fill="#313440"/>
      </g>
    </g>
  </g>
</svg>
