<svg xmlns="http://www.w3.org/2000/svg" xmlns:xlink="http://www.w3.org/1999/xlink" width="39" height="25" viewBox="0 0 39 25">
  <defs>
    <clipPath id="clip-path">
      <rect id="Rectangle_15" data-name="Rectangle 15" width="39" height="25" fill="#fdfdfd"/>
    </clipPath>
  </defs>
  <g id="Group_29" data-name="Group 29" transform="translate(-896 -498)">
    <g id="Group_28" data-name="Group 28" transform="translate(896 498)">
      <g id="Group_27" data-name="Group 27" clip-path="url(#clip-path)">
        <path id="Path_27" data-name="Path 27" d="M898.469,530.023s6.095,1.369,6.141,1.369a.612.612,0,0,0,.549-.845c-.269-.607-1.692-3.637-3.361-3.955L899.329,526a.612.612,0,0,0-.729.464l-.587,2.851a.6.6,0,0,0,.455.708Zm1.183-2.71,1.916.459c.56.1,1.332,1.124,1.922,2.151l-4.181-.944Zm34.733-1.235a.6.6,0,0,0-.462-.078l-2.469.593c-1.668.318-3.092,3.348-3.361,3.955a.613.613,0,0,0,.549.845c.043,0,6.14-1.369,6.14-1.369a.6.6,0,0,0,.455-.708l-.587-2.851a.6.6,0,0,0-.266-.386Zm-4.624,3.845c.59-1.027,1.361-2.051,1.923-2.151l1.916-.458.343,1.665Zm0,0" transform="translate(-897.4 -517.578)" fill="#fdfdfd"/>
        <path id="Path_28" data-name="Path 28" d="M933.85,534.612h-9.608a3.007,3.007,0,0,0,2.985-3.261l6.752-1.488a.6.6,0,0,0-.258-1.173l-6.833,1.506a3,3,0,0,0-5.648,1.245l-3.425.755a.614.614,0,0,1-.725-.46c-.089-.407-.183-.845-.272-1.259l.956-.239a.6.6,0,1,0-.291-1.165l-.914.227c-.071-.338-.122-.584-.14-.669-.018-.228.06-.469.466-.934a7.67,7.67,0,0,1,3.737-1.988,11.064,11.064,0,0,0,5.6-4.214c.01-.017.021-.033.03-.05.449-.839,1.97-3.112,3.623-3.6l4.06-.663a.6.6,0,1,0-.193-1.186l-4.1.669a.5.5,0,0,0-.068.015c-2.4.682-4.175,3.822-4.368,4.175a10.02,10.02,0,0,1-4.921,3.7,9.214,9.214,0,0,0-4.308,2.352,2.394,2.394,0,0,0-.753,1.882c0,.019.006.037.009.056,0,0,.363,1.747.67,3.148a1.817,1.817,0,0,0,1.778,1.416c.122,0,3.723-.776,3.723-.776a3,3,0,0,0,2.806,1.98h-18a3,3,0,0,0,2.806-1.981s3.606.778,3.727.778a1.816,1.816,0,0,0,1.774-1.418c.308-1.4.67-3.148.67-3.148,0-.019.007-.038.009-.056a2.389,2.389,0,0,0-.753-1.882,9.215,9.215,0,0,0-4.308-2.352,9.946,9.946,0,0,1-4.921-3.7c-.193-.353-1.97-3.493-4.369-4.175a.494.494,0,0,0-.068-.015l-4.1-.669a.6.6,0,1,0-.193,1.186l4.06.663c1.984.59,3.606,3.575,3.623,3.606s.02.034.03.049a11.063,11.063,0,0,0,5.6,4.214,7.669,7.669,0,0,1,3.737,1.988c.406.464.485.706.466.934l-.14.669-.914-.227a.6.6,0,1,0-.291,1.165l.956.239c-.089.414-.183.852-.272,1.259a.614.614,0,0,1-.717.462l-3.433-.757a3,3,0,0,0-5.648-1.245l-6.833-1.506a.6.6,0,0,0-.258,1.173l6.752,1.488a3.007,3.007,0,0,0,2.985,3.261H896.6a.6.6,0,0,0,0,1.2h37.25a.6.6,0,0,0,0-1.2Zm-11.368-2.635a1.793,1.793,0,1,1,.771,1.14,1.794,1.794,0,0,1-.771-1.14Zm-16.64,1.394a1.8,1.8,0,1,1,1.356-.254,1.785,1.785,0,0,1-1.356.254Zm0,0" transform="translate(-896 -510.58)" fill="#fdfdfd"/>
        <path id="Path_29" data-name="Path 29" d="M929.267,506.5l3.311,2.212a.6.6,0,1,0,.668-1l-1.949-1.3,2.115-.241a.608.608,0,0,0,.463-.875l-.692-1.322,2.468.532a.612.612,0,0,0,.726-.617l-.135-2.829,1.825,1.557a.61.61,0,0,0,.89-.124l1.581-2.372.664,3.146a.607.607,0,0,0,.959.348l2-1.573-1.108,3.478a.611.611,0,0,0,.58.784l1.855-.021-1.028.968a.6.6,0,0,0,.824.875l1.24-1.169a5.612,5.612,0,0,0,.922-.891c.271-.406.163-1-.433-1l-2.563.029,1.448-4.548a.606.606,0,0,0-.945-.655l-2.779,2.185-.759-3.6a.606.606,0,0,0-1.088-.209l-2,3-2.367-2.018a.605.605,0,0,0-.99.486l.165,3.436-2.958-.636a.607.607,0,0,0-.658.867l.88,1.679-2.872.329a.6.6,0,0,0-.265,1.1Zm0,0" transform="translate(-919.086 -498.001)" fill="#fdfdfd"/>
      </g>
    </g>
  </g>
</svg>
