<svg xmlns="http://www.w3.org/2000/svg" xmlns:xlink="http://www.w3.org/1999/xlink" width="25" height="25" viewBox="0 0 25 25">
  <defs>
    <clipPath id="clip-path">
      <rect id="Rectangle_16" data-name="Rectangle 16" width="25" height="25" fill="#fdfdfd"/>
    </clipPath>
  </defs>
  <g id="Group_32" data-name="Group 32" transform="translate(-781 -362)">
    <g id="Group_31" data-name="Group 31" transform="translate(781 362)">
      <g id="Group_30" data-name="Group 30" transform="translate(0 0)" clip-path="url(#clip-path)">
        <path id="Path_30" data-name="Path 30" d="M806.7,367.934a5.376,5.376,0,0,0-9.16-3.763l-3.416,3.416-3.449-3.449a5.356,5.356,0,0,0-7.574,7.574l3.449,3.448-3.449,3.449a5.356,5.356,0,0,0,7.574,7.574l3.449-3.449,3.416,3.416a5.355,5.355,0,1,0,7.574-7.574L801.7,375.16l3.448-3.448a5.271,5.271,0,0,0,1.554-3.777Zm-22.9,3.076a4.349,4.349,0,0,1,3.1-7.434,4.33,4.33,0,0,1,3.073,1.264l3.448,3.448-6.171,6.171Zm10.321-2.02,6.171,6.171-6.171,6.171-6.17-6.171Zm-4.15,16.491a4.363,4.363,0,1,1-6.171-6.17l3.449-3.449,6.171,6.171Zm14.438-6.2a4.363,4.363,0,0,1-6.171,6.17l-3.416-3.416,6.17-6.171ZM801,374.458l-6.17-6.171,3.416-3.416a4.381,4.381,0,0,1,7.466,3.066,4.286,4.286,0,0,1-1.263,3.071Zm0,0" transform="translate(-781.506 -362.543)" fill="#fdfdfd"/>
      </g>
    </g>
    <path id="Path_31" data-name="Path 31" d="M903.849,484.819a1.478,1.478,0,0,0-.474-1.059,1.514,1.514,0,1,0,.474,1.059Zm-1.169.435a.544.544,0,1,1,0-.785l.014.014a.488.488,0,0,1,.163.356.572.572,0,0,1-.177.415Zm3.206,3.22a1.515,1.515,0,0,0,0-2.2,1.539,1.539,0,1,0,0,2.2Zm-1.48-.709a.555.555,0,0,1,.785-.785l.014.014a.523.523,0,0,1,0,.758l-.014.014a.585.585,0,0,1-.785,0Zm.69-4.175a1.547,1.547,0,1,0-1.5-1.145,1.547,1.547,0,0,0,1.5,1.145Zm-.392-1.93a.583.583,0,1,1-.152.393.556.556,0,0,1,.152-.393Zm1.366,2.9a1.546,1.546,0,0,0,2.624,1.1,1.479,1.479,0,0,0,.474-1.059,1.55,1.55,0,1,0-3.1-.043Zm1.145-.392a.583.583,0,0,1,.785,0,.572.572,0,0,1,.177.415.488.488,0,0,1-.163.356l-.014.014a.555.555,0,0,1-.785-.785Zm0,0" transform="translate(-111.328 -110.096)" fill="#fdfdfd"/>
  </g>
</svg>
