<svg xmlns="http://www.w3.org/2000/svg" xmlns:xlink="http://www.w3.org/1999/xlink" width="27" height="25" viewBox="0 0 27 25">
  <defs>
    <clipPath id="clip-path">
      <rect id="Rectangle_14" data-name="Rectangle 14" width="27" height="25" fill="#fdfdfd"/>
    </clipPath>
  </defs>
  <g id="Group_36" data-name="Group 36" transform="translate(-270 -651)">
    <g id="Group_26" data-name="Group 26" transform="translate(-659 138)">
      <g id="Group_25" data-name="Group 25" transform="translate(929 513)">
        <g id="Group_24" data-name="Group 24" clip-path="url(#clip-path)">
          <path id="Path_24" data-name="Path 24" d="M951.616,533.625c-.018,0-.034.006-.049.006a.39.39,0,0,1-.049-.006,1.971,1.971,0,0,0-1.936,2,2.007,2.007,0,0,0,.3,1.07,1.938,1.938,0,0,0,1.116.858,2.069,2.069,0,0,0,.517.069.443.443,0,0,0,.049,0c.018,0,.033,0,.049,0a1.881,1.881,0,0,0,.494-.066,1.987,1.987,0,0,0,.978-.633l.005-.006a2.061,2.061,0,0,0,.278-2.135,1.937,1.937,0,0,0-1.755-1.16Zm-.271,2.976a.987.987,0,0,1-.561-.439,1.051,1.051,0,0,1,.3-1.4.906.906,0,0,1,.957,0,.97.97,0,0,1,.452.869,1,1,0,0,1-.222.644,1.046,1.046,0,0,1-.5.332.858.858,0,0,1-.206.024,1.062,1.062,0,0,1-.214-.027Zm6.994-.973a1.967,1.967,0,0,0-1.758-1.992,1.494,1.494,0,0,0-.176-.011c-.014,0-.028,0-.042,0s-.039,0-.056,0a1.933,1.933,0,0,0-1.73,1.1,2.06,2.06,0,0,0,.176,2.094,1.942,1.942,0,0,0,.892.682,1.871,1.871,0,0,0,.663.122c.016,0,.03-.006.044-.006s.035.006.053.006a1.969,1.969,0,0,0,1.936-2Zm-2.268.948a.994.994,0,0,1-.454-.346,1.036,1.036,0,0,1-.125-.969.965.965,0,0,1,.888-.642h0a.985.985,0,0,1,.9,1.01.945.945,0,0,1-.359.815.878.878,0,0,1-.856.133Zm0,0" transform="translate(-940.318 -524.021)" fill="#fdfdfd"/>
          <path id="Path_25" data-name="Path 25" d="M953.622,525.527a2.214,2.214,0,0,0,2.643-1.673,36.495,36.495,0,0,1-2.657-5.155,2.155,2.155,0,0,0-2.54.274,2.343,2.343,0,0,0-.6,2.568l-2.018,1.319a7.38,7.38,0,0,0-11.046-.469l-1.871-1.437a2.335,2.335,0,0,0-.839-2.961,2.165,2.165,0,0,0-2.928.584,2.349,2.349,0,0,0-.428,1.582,2.25,2.25,0,0,0-1.73,1.746,2.333,2.333,0,0,0,.84,2.343,2.148,2.148,0,0,0,1.319.453,2.1,2.1,0,0,0,.325-.024,2.179,2.179,0,0,0,1.183-.587l2.165,1.666a8.019,8.019,0,0,0-.318,2.23,8.128,8.128,0,0,0,.641,3.157l-2.818,1.841a2.164,2.164,0,0,0-2.5-.546,2.3,2.3,0,0,0-1.333,2.257,2.273,2.273,0,0,0,1.611,2.052,2.317,2.317,0,0,0,1.1,2.394,2.158,2.158,0,0,0,2.546-.275,2.348,2.348,0,0,0,.6-2.577l3.154-2.059c.186.145.378.287.573.415v1.837a1.907,1.907,0,0,0,1.869,1.937h4.729a1.907,1.907,0,0,0,1.869-1.937v-1.71l2.741,2.11a2.363,2.363,0,0,0,.107,2.219,2.2,2.2,0,0,0,1.876,1.08,2.158,2.158,0,0,0,.327-.024,2.281,2.281,0,0,0,1.885-2.486,2.217,2.217,0,0,0,1.345-.879,2.35,2.35,0,0,0-.3-3.076,2.161,2.161,0,0,0-2.987.028l-2.729-2.1a8.005,8.005,0,0,0,.719-5.269l2.342-1.528a2.173,2.173,0,0,0,1.132.678Zm-1.768-5.934a1.225,1.225,0,0,1,1.519.128,1.335,1.335,0,0,1,.281,1.55.51.51,0,0,0,.021.488.448.448,0,0,0,.418.231,1.251,1.251,0,0,1,1.085.606,1.332,1.332,0,0,1-.392,1.8,1.237,1.237,0,0,1-1.741-.406.372.372,0,0,0-.025-.051,1.308,1.308,0,0,1-.13-.957,1.159,1.159,0,0,1,.09-.262.506.506,0,0,0,.031-.376.2.2,0,0,0-.017-.036.378.378,0,0,0-.033-.076v0a.457.457,0,0,0-.417-.229,1.223,1.223,0,0,1-1.048-.559c0-.005-.009-.007-.013-.013a.229.229,0,0,0-.024-.034,1.331,1.331,0,0,1,.394-1.8ZM931.958,523.7a1.238,1.238,0,0,1-1.2-.531,1.34,1.34,0,0,1-.1-1.348,1.259,1.259,0,0,1,1.11-.715c.042,0,.082,0,.125.006a.47.47,0,0,0,.433-.2.505.505,0,0,0,.058-.484,1.323,1.323,0,0,1,.5-1.582,1.227,1.227,0,0,1,1.593.213,1.337,1.337,0,0,1,.091,1.661.3.3,0,0,0-.033.036.027.027,0,0,1-.007.007,1.248,1.248,0,0,1-.285.262,1.172,1.172,0,0,1-.8.213.467.467,0,0,0-.394.147.5.5,0,0,0-.128.411.491.491,0,0,0,.032.125,1.321,1.321,0,0,1,.083.306v.027a1.315,1.315,0,0,1-.213.88s0,.007,0,.009-.016.026-.023.038a1.241,1.241,0,0,1-.83.515Zm1.958-.712c.009-.034.016-.071.023-.107.016-.078.028-.156.037-.237,0-.038.007-.076.01-.116a2.678,2.678,0,0,0,0-.313v-.022a2.122,2.122,0,0,0,.318-.095c.03-.011.058-.023.088-.036a2.079,2.079,0,0,0,.23-.116c.024-.014.051-.027.076-.044a2.346,2.346,0,0,0,.244-.176l1.755,1.349a7.815,7.815,0,0,0-.986,1.654l-1.887-1.451a2.46,2.46,0,0,0,.095-.29Zm.225,14.439a1.28,1.28,0,0,1-.951.986,1.233,1.233,0,0,1-1.27-.466,1.338,1.338,0,0,1-.137-1.384.508.508,0,0,0-.019-.484.471.471,0,0,0-.408-.235h-.014a1.225,1.225,0,0,1-1.085-.606,1.331,1.331,0,0,1,.394-1.8,1.236,1.236,0,0,1,1.739.407c.007.014.014.027.021.042l0,.007a1.321,1.321,0,0,1,.135.942,1.305,1.305,0,0,1-.1.28.511.511,0,0,0,.023.487.477.477,0,0,0,.417.233.111.111,0,0,0,.024,0,1.233,1.233,0,0,1,1.025.558c.01.015.023.029.033.044a1.327,1.327,0,0,1,.165.986Zm.29-1.955a2.393,2.393,0,0,0-.225-.193c-.03-.022-.062-.04-.092-.062-.061-.042-.126-.08-.191-.116l-.111-.056a2.274,2.274,0,0,0-.259-.1.369.369,0,0,0-.04-.016v-.016a2.374,2.374,0,0,0,.026-.315v-.124a1.972,1.972,0,0,0-.019-.229c-.005-.038-.007-.078-.014-.116a2.463,2.463,0,0,0-.072-.293l2.7-1.764a7.719,7.719,0,0,0,1.171,1.523Zm11.777-1.379v2.388a.934.934,0,0,1-.913.949h-.777v-2.043a.478.478,0,1,0-.957,0v2.043h-1.38v-2.043a.477.477,0,1,0-.955,0v2.043h-.664a.93.93,0,0,1-.913-.948v-2.115a.5.5,0,0,0-.237-.427,7.139,7.139,0,0,1-.916-.657,6.936,6.936,0,0,1-2.414-5.3,6.847,6.847,0,0,1,4.385-6.468,6.489,6.489,0,0,1,7.362,2.1.508.508,0,0,0,.086.224,6.843,6.843,0,0,1,1.146,2.472.473.473,0,0,0,.141.233,6.9,6.9,0,0,1-.681,4.753.486.486,0,0,0-.193.178,6.631,6.631,0,0,1-1.778,2.026,1.713,1.713,0,0,0-.346.588Zm7.27.044a1.242,1.242,0,0,1,1.245.555,1.34,1.34,0,0,1,.039,1.4,1.248,1.248,0,0,1-1.212.628.47.47,0,0,0-.433.2.511.511,0,0,0-.058.486,1.333,1.333,0,0,1-.154,1.266,1.233,1.233,0,0,1-1.766.266,1.332,1.332,0,0,1-.257-1.825c.011-.011.019-.024.03-.035s0,0,0-.005a1.22,1.22,0,0,1,1.088-.479.466.466,0,0,0,.434-.195.506.506,0,0,0,.056-.487,1.314,1.314,0,0,1,.128-1.217c.011-.014.019-.031.03-.045a1.223,1.223,0,0,1,.821-.508Zm-1.964.731a.069.069,0,0,1,0,.02,2.455,2.455,0,0,0-.055.345.237.237,0,0,1,0,.036,2.519,2.519,0,0,0,0,.369c-.01,0-.019.007-.03.009a2.455,2.455,0,0,0-.276.082c-.037.014-.076.031-.113.047a1.918,1.918,0,0,0-.2.1c-.035.02-.069.036-.1.058a2.342,2.342,0,0,0-.237.175l-2.836-2.181a7.739,7.739,0,0,0,1.261-1.437l2.689,2.066a2.259,2.259,0,0,0-.1.313Zm-1.635-9.486a7.966,7.966,0,0,0-.846-1.735L951,522.359a2.231,2.231,0,0,0,.234.2c.019.014.04.027.059.04a2.553,2.553,0,0,0,.239.145l.068.034a2.167,2.167,0,0,0,.315.124,2.346,2.346,0,0,0-.028.349v.076a2.531,2.531,0,0,0,.024.3c0,.017,0,.035.007.053A2.416,2.416,0,0,0,952,524Zm0,0" transform="translate(-929.06 -515.489)" fill="#fdfdfd"/>
        </g>
      </g>
      <path id="Path_26" data-name="Path 26" d="M956.378,516.539h.014a.246.246,0,0,0,.24-.225.24.24,0,1,0-.254.225Zm1.442-.076h.05a.241.241,0,0,0-.1-.473.239.239,0,0,0,.047.473Zm-2.9-.172a.3.3,0,0,0,.068.008.233.233,0,0,0,.229-.175.24.24,0,0,0-.464-.125.243.243,0,0,0,.167.292Zm4.625-1.86a.5.5,0,0,0,.077.01.238.238,0,1,0-.225-.316.242.242,0,0,0,.148.306Zm-.529,1.3a.242.242,0,0,0,.03-.482.235.235,0,0,0-.222.1.242.242,0,0,0,.048.334.264.264,0,0,0,.144.047Zm-8.884,1.424a.215.215,0,0,0,.123.034.235.235,0,0,0,.206-.114.246.246,0,0,0-.086-.329.237.237,0,0,0-.18-.024.229.229,0,0,0-.144.111v-.005a.234.234,0,0,0,.081.329Zm.988-1.1a.24.24,0,0,0,.167-.41.236.236,0,0,0-.329.339.217.217,0,0,0,.162.07Zm2.426-.315a.224.224,0,0,0,.111.03.238.238,0,1,0-.211-.35.236.236,0,0,0,.1.32Zm-1.227-.42h.019a.231.231,0,0,0,.16-.084.238.238,0,0,0,.054-.174.237.237,0,1,0-.234.258Zm0,0" transform="translate(-11.552 -0.53)" fill="#fdfdfd"/>
    </g>
  </g>
</svg>
