<svg xmlns="http://www.w3.org/2000/svg" xmlns:xlink="http://www.w3.org/1999/xlink" width="19.231" height="25" viewBox="0 0 19.231 25">
  <defs>
    <clipPath id="clip-path">
      <rect id="Rectangle_17" data-name="Rectangle 17" width="19.231" height="25" fill="#fdfdfd"/>
    </clipPath>
  </defs>
  <g id="Group_35" data-name="Group 35" transform="translate(-950 -527)">
    <g id="Group_34" data-name="Group 34" transform="translate(950 527)">
      <g id="Group_33" data-name="Group 33" clip-path="url(#clip-path)">
        <path id="Path_32" data-name="Path 32" d="M960.05,551.038h-1.1a7.77,7.77,0,0,1-7.193-4.136,14.324,14.324,0,0,1,1.093-14.994l3.027-4.485a.965.965,0,0,1,1.7.2l2.546,6.915,4.076-2.735a.92.92,0,0,1,.725-.142.958.958,0,0,1,.612.4l1.379,2.074a12.477,12.477,0,0,1,.777,12.481,8.255,8.255,0,0,1-7.647,4.414Zm-3.624-20.981-1.976,2.93a12.87,12.87,0,0,0-1.919,3.943,13.033,13.033,0,0,0,.95,9.116,5.815,5.815,0,0,0,5.473,3.068h1.1a6.373,6.373,0,0,0,5.927-3.35,10.556,10.556,0,0,0-.657-10.559l-.841-1.265-4.293,2.885a.956.956,0,0,1-.83.116.97.97,0,0,1-.609-.587Zm0,0" transform="translate(-950.007 -527)" fill="#fdfdfd"/>
      </g>
    </g>
    <path id="Path_33" data-name="Path 33" d="M960.721,549.517h-.576a5.089,5.089,0,0,1-4.3-1.859,4.781,4.781,0,0,1,.61-6.3l1.587-1.752a1.284,1.284,0,0,1,1.045-.356,1.1,1.1,0,0,1,.9.533l1.071,2.169,1.509-.753a1.41,1.41,0,0,1,.826-.125,1.169,1.169,0,0,1,.706.35l.722.807a4.194,4.194,0,0,1,.438,5.323,5.368,5.368,0,0,1-4.536,1.968Zm-2.055-7.673-.382.427a3.492,3.492,0,0,0-.469,4.65,2.733,2.733,0,0,0,2.33.955h.576a3.018,3.018,0,0,0,2.571-1.064,2.906,2.906,0,0,0-.3-3.68l-.112-.121-1.749.871a1.411,1.411,0,0,1-.955.1,1.007,1.007,0,0,1-.7-.5Zm0,0" transform="translate(-0.885 1.471)" fill="#fdfdfd"/>
  </g>
</svg>
